<svg width="173" height="33" viewBox="0 0 173 33" fill="none" xmlns="http://www.w3.org/2000/svg">
<g clip-path="url(#clip0_14_2)">
<path fill-rule="evenodd" clip-rule="evenodd" d="M46.9 0.187006C49.776 0.978006 57.222 4.01101 56.336 14.078C55.859 16.6654 54.6064 19.0465 52.7444 20.9052C50.8825 22.764 48.4992 24.0125 45.911 24.485L39.394 24.479C39.0579 24.4787 38.7274 24.3929 38.4337 24.2296C38.1399 24.0663 37.8926 23.8309 37.7149 23.5456C37.5372 23.2604 37.4351 22.9345 37.4182 22.5989C37.4012 22.2632 37.47 21.9287 37.618 21.627C37.618 21.627 39.86 16.36 39.986 16.1C40.1478 15.7643 40.401 15.4811 40.7166 15.2829C41.0322 15.0848 41.3974 14.9798 41.77 14.98C42.863 14.98 44.356 15.006 44.356 15.006C44.356 15.006 46.356 15.351 46.562 12.795L46.625 12.006C46.7029 11.3736 46.5726 10.7331 46.2537 10.1814C45.9349 9.6298 45.4449 9.19713 44.858 8.94901L43.994 8.88401C42.541 8.82701 43.267 7.19201 43.268 7.18401L45.333 1.52301C45.333 1.52301 45.8 -0.517994 46.9 0.187006Z" fill="#9B8FFA"/>
<path fill-rule="evenodd" clip-rule="evenodd" d="M10.757 23.181C10.5682 22.8093 10.4805 22.3945 10.5026 21.9782C10.5247 21.5618 10.6559 21.1586 10.883 20.809C11.307 20.159 18.358 2.30901 18.358 2.30901C18.5628 1.61598 18.9888 1.00903 19.5709 0.580886C20.1531 0.152745 20.8594 -0.0730447 21.582 -0.0619905H27.915C28.1972 -0.0613495 28.4749 0.00875396 28.7236 0.142131C28.9722 0.275509 29.1843 0.468058 29.3409 0.702781C29.4976 0.937504 29.594 1.20718 29.6218 1.48801C29.6495 1.76883 29.6077 2.05217 29.5 2.31301C29.5 2.31301 18.355 30.976 18.245 31.222C18.0871 31.5755 17.829 31.875 17.5026 32.0833C17.1763 32.2917 16.796 32.3998 16.4089 32.3942C16.0217 32.3887 15.6447 32.2698 15.3244 32.0522C15.0042 31.8346 14.7547 31.5279 14.607 31.17C14.607 31.17 11.15 23.951 10.757 23.181Z" fill="#8D70F8"/>
<path fill-rule="evenodd" clip-rule="evenodd" d="M25.007 23.181C24.8182 22.8093 24.7305 22.3945 24.7526 21.9782C24.7747 21.5618 24.9059 21.1586 25.133 20.809C25.557 20.159 31.816 2.30901 31.816 2.30901C32.0208 1.61598 32.4468 1.00903 33.0289 0.580886C33.6111 0.152745 34.3174 -0.0730447 35.04 -0.0619905H41.373C41.655 -0.0610221 41.9325 0.00932054 42.1809 0.142835C42.4293 0.27635 42.6411 0.468934 42.7975 0.703609C42.9539 0.938283 43.0502 1.20784 43.0778 1.4885C43.1055 1.76917 43.0636 2.05233 42.956 2.31301C42.956 2.31301 31.812 30.976 31.7 31.222C31.5421 31.5755 31.284 31.875 30.9576 32.0833C30.6313 32.2917 30.251 32.3998 29.8639 32.3942C29.4767 32.3887 29.0997 32.2698 28.7794 32.0522C28.4592 31.8346 28.2097 31.5279 28.062 31.17C28.062 31.17 25.4 23.951 25.007 23.181Z" fill="#9B8FFA"/>
<path fill-rule="evenodd" clip-rule="evenodd" d="M14.062 -0.0620117C14.3867 -0.0619667 14.7064 0.0179318 14.9929 0.170645C15.2795 0.323358 15.5241 0.544199 15.7052 0.813711C15.8863 1.08322 15.9983 1.39314 16.0314 1.71615C16.0645 2.03916 16.0176 2.36535 15.895 2.66599L10.367 15.3C10.2206 15.6778 9.96178 16.0016 9.62554 16.2277C9.28929 16.4538 8.89178 16.5712 8.48665 16.5643C8.08153 16.5573 7.68829 16.4262 7.36003 16.1887C7.03177 15.9511 6.78428 15.6186 6.65098 15.236C6.59998 15.077 1.11698 2.31199 1.11698 2.31199C1.03919 2.10378 0.999553 1.88325 0.999977 1.66099C0.982086 1.22276 1.13867 0.795317 1.4354 0.472342C1.73213 0.149367 2.14481 -0.0427897 2.58298 -0.0620117H14.062Z" fill="#613CEA"/>
<path fill-rule="evenodd" clip-rule="evenodd" d="M82.927 19.633L78.977 7.38099H75.4L71.474 19.581L68.223 7.38099H64.574L69.5 25.109H73.1L77.151 12.482L81.2 25.109H84.751L89.651 7.38099H86.128L82.927 19.633ZM96.841 12.757C96.5837 12.7271 96.325 12.7104 96.066 12.707C95.3588 12.6542 94.6515 12.808 94.0301 13.1498C93.4087 13.4915 92.9001 14.0065 92.566 14.632V12.807H89.34V25.107H92.666V19.483C92.666 16.833 94.141 16.007 95.841 16.007C96.1768 16.0067 96.5118 16.0402 96.841 16.107V12.757ZM97.631 21.757C97.631 23.682 99.231 25.457 101.857 25.457C102.567 25.4925 103.275 25.343 103.91 25.0231C104.546 24.7032 105.087 24.2239 105.482 23.632C105.48 24.1264 105.522 24.62 105.607 25.107H108.658C108.562 24.4614 108.512 23.8097 108.508 23.157V17.107C108.508 14.632 107.057 12.431 103.157 12.431C99.857 12.431 98.081 14.556 97.881 16.482L100.831 17.107C100.878 16.5302 101.152 15.9955 101.593 15.6205C102.033 15.2455 102.605 15.0608 103.182 15.107C104.582 15.107 105.257 15.832 105.257 16.707C105.257 16.8263 105.233 16.9445 105.187 17.0542C105.14 17.1639 105.071 17.2628 104.984 17.3448C104.897 17.4268 104.795 17.4901 104.683 17.5309C104.57 17.5717 104.451 17.5891 104.332 17.582L101.307 18.032C99.256 18.332 97.631 19.557 97.631 21.757ZM102.557 22.982C102.356 23.0038 102.153 22.9833 101.961 22.9218C101.769 22.8602 101.591 22.7591 101.441 22.6248C101.29 22.4905 101.169 22.3261 101.086 22.1422C101.002 21.9582 100.958 21.7589 100.957 21.557C100.958 21.1503 101.118 20.7603 101.404 20.4705C101.689 20.1807 102.076 20.0143 102.483 20.007L105.258 19.582V20.132C105.257 22.308 103.957 22.982 102.557 22.982ZM113.914 29.858V23.908C114.35 24.4156 114.897 24.8153 115.513 25.0756C116.129 25.3359 116.797 25.4497 117.465 25.408C120.94 25.408 123.265 22.658 123.265 18.932C123.265 15.281 121.189 12.532 117.589 12.532C116.861 12.483 116.132 12.6203 115.471 12.9308C114.811 13.2414 114.24 13.715 113.813 14.307V12.807H110.588V29.859H113.913L113.914 29.858ZM119.99 18.958C119.99 21.158 118.64 22.434 116.94 22.434C115.24 22.434 113.864 21.134 113.864 18.958C113.864 16.782 115.239 15.508 116.94 15.508C118.641 15.508 119.99 16.782 119.99 18.958ZM128.105 15.458V10.381H130.831C131.187 10.3362 131.548 10.3696 131.89 10.4787C132.232 10.5878 132.545 10.77 132.81 11.0127C133.074 11.2554 133.282 11.5528 133.419 11.884C133.557 12.2153 133.621 12.5726 133.606 12.931C133.616 13.287 133.548 13.6409 133.409 13.9686C133.269 14.2962 133.061 14.5899 132.797 14.8296C132.534 15.0693 132.222 15.2493 131.882 15.3574C131.543 15.4655 131.184 15.4991 130.831 15.456H128.1L128.105 15.458ZM131.256 18.434C134.756 18.434 137.082 16.134 137.082 12.908C137.082 9.70799 134.756 7.38199 131.256 7.38199H124.63V25.109H128.08V18.433L131.256 18.434ZM141.496 25.11V12.81H138.171V25.11H141.5H141.496ZM137.771 8.78099C137.776 9.18534 137.9 9.5792 138.129 9.91302C138.357 10.2468 138.679 10.5057 139.054 10.657C139.429 10.8084 139.84 10.8454 140.236 10.7635C140.632 10.6816 140.995 10.4844 141.279 10.1968C141.563 9.90908 141.756 9.54379 141.833 9.14682C141.91 8.74986 141.868 8.33896 141.712 7.96583C141.557 7.59269 141.294 7.27399 140.957 7.04982C140.621 6.82565 140.225 6.70602 139.821 6.70599C139.55 6.70651 139.281 6.76071 139.031 6.86548C138.781 6.97025 138.554 7.12351 138.364 7.31642C138.173 7.50933 138.023 7.73807 137.921 7.98944C137.819 8.24081 137.768 8.50983 137.771 8.78099ZM142.571 25.109H146.322C146.747 24.434 148.397 22.009 148.847 21.333L151.422 25.109H155.322L150.871 18.833L155.171 12.807H151.4L148.975 16.458C148.55 15.783 146.95 13.482 146.525 12.807H142.57L146.946 18.933L142.571 25.109ZM157.888 17.558C157.948 16.8784 158.267 16.2478 158.779 15.7966C159.291 15.3453 159.956 15.1078 160.638 15.133C160.981 15.0944 161.329 15.1282 161.658 15.232C161.988 15.3358 162.292 15.5075 162.551 15.7359C162.81 15.9643 163.018 16.2444 163.163 16.5582C163.307 16.8721 163.384 17.2126 163.389 17.558H157.889H157.888ZM163.714 20.758C163.526 21.34 163.148 21.8418 162.64 22.182C162.132 22.5223 161.524 22.6812 160.914 22.633C160.135 22.6607 159.375 22.3839 158.797 21.8612C158.218 21.3385 157.865 20.6111 157.814 19.833H166.614C166.614 19.783 166.664 19.283 166.664 18.808C166.664 14.857 164.389 12.432 160.588 12.432C159.762 12.4479 158.947 12.6294 158.192 12.9659C157.437 13.3023 156.758 13.7868 156.193 14.3907C155.629 14.9945 155.192 15.7055 154.907 16.4814C154.623 17.2574 154.497 18.0825 154.537 18.908C154.489 19.765 154.619 20.6226 154.919 21.427C155.218 22.2314 155.68 22.9653 156.277 23.5827C156.873 24.2 157.59 24.6876 158.384 25.0148C159.177 25.342 160.03 25.5017 160.888 25.484C162.123 25.5522 163.345 25.2054 164.36 24.4986C165.375 23.7918 166.124 22.7658 166.488 21.584L163.714 20.758ZM170.995 25.109V7.00599H167.67V25.106H170.995V25.109Z" fill="white"/>
</g>
<defs>
<clipPath id="clip0_14_2">
<rect width="173" height="33" fill="white"/>
</clipPath>
</defs>
</svg>
